<?xml version="1.0" encoding="UTF-8" standalone="no"?><svg xmlns="http://www.w3.org/2000/svg" xmlns:xlink="http://www.w3.org/1999/xlink" contentScriptType="application/ecmascript" contentStyleType="text/css" height="625px" preserveAspectRatio="none" style="width:902px;height:625px;" version="1.1" viewBox="0 0 902 625" width="902px" zoomAndPan="magnify"><defs><filter height="300%" id="f1650by5210flq" width="300%" x="-1" y="-1"><feGaussianBlur result="blurOut" stdDeviation="2.0"/><feColorMatrix in="blurOut" result="blurOut2" type="matrix" values="0 0 0 0 0 0 0 0 0 0 0 0 0 0 0 0 0 0 .4 0"/><feOffset dx="4.0" dy="4.0" in="blurOut2" result="blurOut3"/><feBlend in="SourceGraphic" in2="blurOut3" mode="normal"/></filter></defs><g><rect fill="#FFFFFF" filter="url(#f1650by5210flq)" height="39.6599" style="stroke: #FFFFFF; stroke-width: 1.0;" width="10" x="435" y="235.0574"/><line style="stroke: #A80036; stroke-width: 1.0;" x1="435" x2="435" y1="235.0574" y2="274.7174"/><line style="stroke: #A80036; stroke-width: 1.0;" x1="445" x2="445" y1="235.0574" y2="274.7174"/><line style="stroke: #A80036; stroke-width: 1.0;" x1="435" x2="445" y1="235.0574" y2="235.0574"/><rect fill="#FFFFFF" filter="url(#f1650by5210flq)" height="209.9009" style="stroke: #FFFFFF; stroke-width: 1.0;" width="10" x="435" y="317.6588"/><line style="stroke: #A80036; stroke-width: 1.0;" x1="435" x2="435" y1="317.6588" y2="527.5596"/><line style="stroke: #A80036; stroke-width: 1.0;" x1="445" x2="445" y1="317.6588" y2="527.5596"/><rect fill="#FFFFFF" filter="url(#f1650by5210flq)" height="127.9211" style="stroke: #A80036; stroke-width: 1.0;" width="10" x="680" y="399.6385"/><rect fill="#FFFFFF" filter="url(#f1650by5210flq)" height="63.3198" style="stroke: #A80036; stroke-width: 1.0;" width="10" x="762" y="455.2398"/><rect fill="#FFFFFF" filter="url(#f1650by5210flq)" height="99.9211" style="stroke: #000000; stroke-width: 2.0;" width="264" x="13" y="104.4764"/><rect fill="#FFFFFF" height="48.6013" style="stroke: none; stroke-width: 1.0;" width="264" x="13" y="155.7962"/><rect fill="#FFFFFF" filter="url(#f1650by5210flq)" height="99.9211" style="stroke: #000000; stroke-width: 2.0;" width="388" x="337" y="324.6588"/><rect fill="#FFFFFF" height="16.9414" style="stroke: none; stroke-width: 1.0;" width="388" x="337" y="407.6385"/><line style="stroke: #A80036; stroke-width: 1.0;" x1="38" x2="38" y1="87.4764" y2="274.7174"/><line style="stroke: #A80036; stroke-width: 1.0; stroke-dasharray: 1.0,4.0;" x1="38" x2="38" y1="274.7174" y2="317.6588"/><line style="stroke: #A80036; stroke-width: 1.0;" x1="38" x2="38" y1="317.6588" y2="536.5596"/><line style="stroke: #A80036; stroke-width: 1.0;" x1="195" x2="195" y1="87.4764" y2="274.7174"/><line style="stroke: #A80036; stroke-width: 1.0; stroke-dasharray: 1.0,4.0;" x1="195" x2="195" y1="274.7174" y2="317.6588"/><line style="stroke: #A80036; stroke-width: 1.0;" x1="195" x2="195" y1="317.6588" y2="536.5596"/><line style="stroke: #A80036; stroke-width: 1.0;" x1="307" x2="307" y1="87.4764" y2="274.7174"/><line style="stroke: #A80036; stroke-width: 1.0; stroke-dasharray: 1.0,4.0;" x1="307" x2="307" y1="274.7174" y2="317.6588"/><line style="stroke: #A80036; stroke-width: 1.0;" x1="307" x2="307" y1="317.6588" y2="536.5596"/><line style="stroke: #A80036; stroke-width: 1.0;" x1="440" x2="440" y1="87.4764" y2="274.7174"/><line style="stroke: #A80036; stroke-width: 1.0; stroke-dasharray: 1.0,4.0;" x1="440" x2="440" y1="274.7174" y2="317.6588"/><line style="stroke: #A80036; stroke-width: 1.0;" x1="440" x2="440" y1="317.6588" y2="536.5596"/><line style="stroke: #A80036; stroke-width: 1.0;" x1="594" x2="594" y1="87.4764" y2="274.7174"/><line style="stroke: #A80036; stroke-width: 1.0; stroke-dasharray: 1.0,4.0;" x1="594" x2="594" y1="274.7174" y2="317.6588"/><line style="stroke: #A80036; stroke-width: 1.0;" x1="594" x2="594" y1="317.6588" y2="536.5596"/><line style="stroke: #A80036; stroke-width: 1.0;" x1="685" x2="685" y1="87.4764" y2="274.7174"/><line style="stroke: #A80036; stroke-width: 1.0; stroke-dasharray: 1.0,4.0;" x1="685" x2="685" y1="274.7174" y2="317.6588"/><line style="stroke: #A80036; stroke-width: 1.0;" x1="685" x2="685" y1="317.6588" y2="536.5596"/><line style="stroke: #A80036; stroke-width: 1.0;" x1="767" x2="767" y1="87.4764" y2="274.7174"/><line style="stroke: #A80036; stroke-width: 1.0; stroke-dasharray: 1.0,4.0;" x1="767" x2="767" y1="274.7174" y2="317.6588"/><line style="stroke: #A80036; stroke-width: 1.0;" x1="767" x2="767" y1="317.6588" y2="536.5596"/><line style="stroke: #A80036; stroke-width: 1.0;" x1="877" x2="877" y1="87.4764" y2="274.7174"/><line style="stroke: #A80036; stroke-width: 1.0; stroke-dasharray: 1.0,4.0;" x1="877" x2="877" y1="274.7174" y2="317.6588"/><line style="stroke: #A80036; stroke-width: 1.0;" x1="877" x2="877" y1="317.6588" y2="536.5596"/><text fill="#000000" font-family="inziu iosevka sc" font-size="14" lengthAdjust="spacingAndGlyphs" textLength="14" x="28" y="85.0767">我</text><ellipse cx="38" cy="13" fill="#FEFECE" filter="url(#f1650by5210flq)" rx="8" ry="8" style="stroke: #A80036; stroke-width: 2.0;"/><path d="M38,21 L38,48 M25,29 L51,29 M38,48 L25,63 M38,48 L51,63 " fill="none" filter="url(#f1650by5210flq)" style="stroke: #A80036; stroke-width: 2.0;"/><text fill="#000000" font-family="inziu iosevka sc" font-size="14" lengthAdjust="spacingAndGlyphs" textLength="14" x="28" y="550.6364">我</text><ellipse cx="38" cy="563.036" fill="#FEFECE" filter="url(#f1650by5210flq)" rx="8" ry="8" style="stroke: #A80036; stroke-width: 2.0;"/><path d="M38,571.036 L38,598.036 M25,579.036 L51,579.036 M38,598.036 L25,613.036 M38,598.036 L51,613.036 " fill="none" filter="url(#f1650by5210flq)" style="stroke: #A80036; stroke-width: 2.0;"/><rect fill="#FEFECE" filter="url(#f1650by5210flq)" height="31.4764" style="stroke: #A80036; stroke-width: 1.5;" width="140" x="123" y="51"/><text fill="#000000" font-family="inziu iosevka sc" font-size="14" lengthAdjust="spacingAndGlyphs" textLength="126" x="130" y="73.0767">Reporter(上报模块)</text><rect fill="#FEFECE" filter="url(#f1650by5210flq)" height="31.4764" style="stroke: #A80036; stroke-width: 1.5;" width="140" x="123" y="535.5596"/><text fill="#000000" font-family="inziu iosevka sc" font-size="14" lengthAdjust="spacingAndGlyphs" textLength="126" x="130" y="557.6364">Reporter(上报模块)</text><rect fill="#FEFECE" filter="url(#f1650by5210flq)" height="31.4764" style="stroke: #A80036; stroke-width: 1.5;" width="56" x="277" y="51"/><text fill="#000000" font-family="inziu iosevka sc" font-size="14" lengthAdjust="spacingAndGlyphs" textLength="42" x="284" y="73.0767">服务器</text><rect fill="#FEFECE" filter="url(#f1650by5210flq)" height="31.4764" style="stroke: #A80036; stroke-width: 1.5;" width="56" x="277" y="535.5596"/><text fill="#000000" font-family="inziu iosevka sc" font-size="14" lengthAdjust="spacingAndGlyphs" textLength="42" x="284" y="557.6364">服务器</text><rect fill="#FEFECE" filter="url(#f1650by5210flq)" height="31.4764" style="stroke: #A80036; stroke-width: 1.5;" width="182" x="347" y="51"/><text fill="#000000" font-family="inziu iosevka sc" font-size="14" lengthAdjust="spacingAndGlyphs" textLength="168" x="354" y="73.0767">PushReceiver(接收方模块)</text><rect fill="#FEFECE" filter="url(#f1650by5210flq)" height="31.4764" style="stroke: #A80036; stroke-width: 1.5;" width="182" x="347" y="535.5596"/><text fill="#000000" font-family="inziu iosevka sc" font-size="14" lengthAdjust="spacingAndGlyphs" textLength="168" x="354" y="557.6364">PushReceiver(接收方模块)</text><rect fill="#FEFECE" filter="url(#f1650by5210flq)" height="31.4764" style="stroke: #A80036; stroke-width: 1.5;" width="98" x="543" y="51"/><text fill="#000000" font-family="inziu iosevka sc" font-size="14" lengthAdjust="spacingAndGlyphs" textLength="84" x="550" y="73.0767">数据缓存模块</text><rect fill="#FEFECE" filter="url(#f1650by5210flq)" height="31.4764" style="stroke: #A80036; stroke-width: 1.5;" width="98" x="543" y="535.5596"/><text fill="#000000" font-family="inziu iosevka sc" font-size="14" lengthAdjust="spacingAndGlyphs" textLength="84" x="550" y="557.6364">数据缓存模块</text><rect fill="#FEFECE" filter="url(#f1650by5210flq)" height="31.4764" style="stroke: #A80036; stroke-width: 1.5;" width="56" x="655" y="51"/><text fill="#000000" font-family="inziu iosevka sc" font-size="14" lengthAdjust="spacingAndGlyphs" textLength="42" x="662" y="73.0767">监听器</text><rect fill="#FEFECE" filter="url(#f1650by5210flq)" height="31.4764" style="stroke: #A80036; stroke-width: 1.5;" width="56" x="655" y="535.5596"/><text fill="#000000" font-family="inziu iosevka sc" font-size="14" lengthAdjust="spacingAndGlyphs" textLength="42" x="662" y="557.6364">监听器</text><rect fill="#FEFECE" filter="url(#f1650by5210flq)" height="31.4764" style="stroke: #A80036; stroke-width: 1.5;" width="70" x="730" y="51"/><text fill="#000000" font-family="inziu iosevka sc" font-size="14" lengthAdjust="spacingAndGlyphs" textLength="56" x="737" y="73.0767">通知模块</text><rect fill="#FEFECE" filter="url(#f1650by5210flq)" height="31.4764" style="stroke: #A80036; stroke-width: 1.5;" width="70" x="730" y="535.5596"/><text fill="#000000" font-family="inziu iosevka sc" font-size="14" lengthAdjust="spacingAndGlyphs" textLength="56" x="737" y="557.6364">通知模块</text><text fill="#000000" font-family="inziu iosevka sc" font-size="14" lengthAdjust="spacingAndGlyphs" textLength="28" x="860" y="85.0767">好友</text><ellipse cx="877" cy="13" fill="#FEFECE" filter="url(#f1650by5210flq)" rx="8" ry="8" style="stroke: #A80036; stroke-width: 2.0;"/><path d="M877,21 L877,48 M864,29 L890,29 M877,48 L864,63 M877,48 L890,63 " fill="none" filter="url(#f1650by5210flq)" style="stroke: #A80036; stroke-width: 2.0;"/><text fill="#000000" font-family="inziu iosevka sc" font-size="14" lengthAdjust="spacingAndGlyphs" textLength="28" x="860" y="550.6364">好友</text><ellipse cx="877" cy="563.036" fill="#FEFECE" filter="url(#f1650by5210flq)" rx="8" ry="8" style="stroke: #A80036; stroke-width: 2.0;"/><path d="M877,571.036 L877,598.036 M864,579.036 L890,579.036 M877,598.036 L864,613.036 M877,598.036 L890,613.036 " fill="none" filter="url(#f1650by5210flq)" style="stroke: #A80036; stroke-width: 2.0;"/><rect fill="#FFFFFF" filter="url(#f1650by5210flq)" height="39.6599" style="stroke: #FFFFFF; stroke-width: 1.0;" width="10" x="435" y="235.0574"/><line style="stroke: #A80036; stroke-width: 1.0;" x1="435" x2="435" y1="235.0574" y2="274.7174"/><line style="stroke: #A80036; stroke-width: 1.0;" x1="445" x2="445" y1="235.0574" y2="274.7174"/><line style="stroke: #A80036; stroke-width: 1.0;" x1="435" x2="445" y1="235.0574" y2="235.0574"/><rect fill="#FFFFFF" filter="url(#f1650by5210flq)" height="209.9009" style="stroke: #FFFFFF; stroke-width: 1.0;" width="10" x="435" y="317.6588"/><line style="stroke: #A80036; stroke-width: 1.0;" x1="435" x2="435" y1="317.6588" y2="527.5596"/><line style="stroke: #A80036; stroke-width: 1.0;" x1="445" x2="445" y1="317.6588" y2="527.5596"/><rect fill="#FFFFFF" filter="url(#f1650by5210flq)" height="127.9211" style="stroke: #A80036; stroke-width: 1.0;" width="10" x="680" y="399.6385"/><rect fill="#FFFFFF" filter="url(#f1650by5210flq)" height="63.3198" style="stroke: #A80036; stroke-width: 1.0;" width="10" x="762" y="455.2398"/><path d="M13,104.4764 L76,104.4764 L76,113.4764 L66,123.4764 L13,123.4764 L13,104.4764 " fill="#EEEEEE" style="stroke: #000000; stroke-width: 1.0;"/><rect fill="none" height="99.9211" style="stroke: #000000; stroke-width: 2.0;" width="264" x="13" y="104.4764"/><text fill="#000000" font-family="更纱黑体 UI SC" font-size="13" font-weight="bold" lengthAdjust="spacingAndGlyphs" textLength="18" x="28" y="119.3446">alt</text><text fill="#000000" font-family="更纱黑体 UI SC" font-size="11" font-weight="bold" lengthAdjust="spacingAndGlyphs" textLength="34" x="91" y="118.2098">[成功]</text><polygon fill="#A80036" points="183,143.7962,193,147.7962,183,151.7962,187,147.7962" style="stroke: #A80036; stroke-width: 1.0;"/><line style="stroke: #A80036; stroke-width: 1.0;" x1="38" x2="189" y1="147.7962" y2="147.7962"/><text fill="#000000" font-family="更纱黑体 UI SC" font-size="13" font-weight="bold" lengthAdjust="spacingAndGlyphs" textLength="12" x="45" y="142.0045">1.</text><text fill="#000000" font-family="更纱黑体 UI SC" font-size="13" lengthAdjust="spacingAndGlyphs" textLength="117" x="61" y="142.0045">上报『输入中』信息</text><line style="stroke: #000000; stroke-width: 1.0; stroke-dasharray: 2.0,2.0;" x1="13" x2="277" y1="156.7962" y2="156.7962"/><text fill="#000000" font-family="更纱黑体 UI SC" font-size="11" font-weight="bold" lengthAdjust="spacingAndGlyphs" textLength="46" x="18" y="168.5296">[超时了]</text><polygon fill="#A80036" points="183,192.3975,193,196.3975,183,200.3975,187,196.3975" style="stroke: #A80036; stroke-width: 1.0;"/><line style="stroke: #A80036; stroke-width: 1.0;" x1="38" x2="189" y1="196.3975" y2="196.3975"/><text fill="#000000" font-family="更纱黑体 UI SC" font-size="13" font-weight="bold" lengthAdjust="spacingAndGlyphs" textLength="12" x="45" y="190.6059">2.</text><text fill="#000000" font-family="更纱黑体 UI SC" font-size="13" lengthAdjust="spacingAndGlyphs" textLength="104" x="61" y="190.6059">上报『超时』信息</text><polygon fill="#A80036" points="295,231.0574,305,235.0574,295,239.0574,299,235.0574" style="stroke: #A80036; stroke-width: 1.0;"/><line style="stroke: #A80036; stroke-width: 1.0;" x1="195" x2="301" y1="235.0574" y2="235.0574"/><text fill="#000000" font-family="更纱黑体 UI SC" font-size="13" font-weight="bold" lengthAdjust="spacingAndGlyphs" textLength="12" x="202" y="229.2658">3.</text><text fill="#000000" font-family="更纱黑体 UI SC" font-size="13" lengthAdjust="spacingAndGlyphs" textLength="52" x="218" y="229.2658">上报信息</text><polygon fill="#A80036" points="423,262.7174,433,266.7174,423,270.7174,427,266.7174" style="stroke: #A80036; stroke-width: 1.0;"/><line style="stroke: #A80036; stroke-width: 1.0;" x1="307" x2="429" y1="266.7174" y2="266.7174"/><text fill="#000000" font-family="更纱黑体 UI SC" font-size="13" font-weight="bold" lengthAdjust="spacingAndGlyphs" textLength="12" x="314" y="260.9257">4.</text><text fill="#000000" font-family="更纱黑体 UI SC" font-size="13" lengthAdjust="spacingAndGlyphs" textLength="52" x="330" y="260.9257">分发信息</text><text fill="#000000" font-family="更纱黑体 UI SC" font-size="11" lengthAdjust="spacingAndGlyphs" textLength="77" x="419" y="300.4508">数据传输中……</text><path d="M337,324.6588 L400,324.6588 L400,333.6588 L390,343.6588 L337,343.6588 L337,324.6588 " fill="#EEEEEE" style="stroke: #000000; stroke-width: 1.0;"/><rect fill="none" height="99.9211" style="stroke: #000000; stroke-width: 2.0;" width="388" x="337" y="324.6588"/><text fill="#000000" font-family="更纱黑体 UI SC" font-size="13" font-weight="bold" lengthAdjust="spacingAndGlyphs" textLength="18" x="352" y="339.527">alt</text><text fill="#000000" font-family="更纱黑体 UI SC" font-size="11" font-weight="bold" lengthAdjust="spacingAndGlyphs" textLength="34" x="415" y="338.3922">[成功]</text><line style="stroke: #A80036; stroke-width: 1.0;" x1="592" x2="582" y1="367.9786" y2="363.9786"/><line style="stroke: #A80036; stroke-width: 1.0;" x1="592" x2="582" y1="367.9786" y2="371.9786"/><line style="stroke: #A80036; stroke-width: 1.0;" x1="445" x2="593" y1="367.9786" y2="367.9786"/><text fill="#000000" font-family="更纱黑体 UI SC" font-size="13" font-weight="bold" lengthAdjust="spacingAndGlyphs" textLength="12" x="452" y="362.1869">5.</text><text fill="#000000" font-family="更纱黑体 UI SC" font-size="13" lengthAdjust="spacingAndGlyphs" textLength="91" x="468" y="362.1869">子线程缓存数据</text><line style="stroke: #A80036; stroke-width: 1.0;" x1="678" x2="668" y1="399.6385" y2="395.6385"/><line style="stroke: #A80036; stroke-width: 1.0;" x1="678" x2="668" y1="399.6385" y2="403.6385"/><line style="stroke: #A80036; stroke-width: 1.0;" x1="445" x2="679" y1="399.6385" y2="399.6385"/><text fill="#000000" font-family="更纱黑体 UI SC" font-size="13" font-weight="bold" lengthAdjust="spacingAndGlyphs" textLength="12" x="452" y="393.8468">6.</text><text fill="#000000" font-family="更纱黑体 UI SC" font-size="13" lengthAdjust="spacingAndGlyphs" textLength="102" x="468" y="393.8468">子线程通知显示ui</text><line style="stroke: #000000; stroke-width: 1.0; stroke-dasharray: 2.0,2.0;" x1="337" x2="725" y1="408.6385" y2="408.6385"/><text fill="#000000" font-family="更纱黑体 UI SC" font-size="11" font-weight="bold" lengthAdjust="spacingAndGlyphs" textLength="106" x="342" y="420.3719">[数据无效，忽略之]</text><polygon fill="#A80036" points="750,451.2398,760,455.2398,750,459.2398,754,455.2398" style="stroke: #A80036; stroke-width: 1.0;"/><line style="stroke: #A80036; stroke-width: 1.0;" x1="690" x2="756" y1="455.2398" y2="455.2398"/><text fill="#000000" font-family="更纱黑体 UI SC" font-size="13" font-weight="bold" lengthAdjust="spacingAndGlyphs" textLength="12" x="697" y="449.4481">7.</text><text fill="#000000" font-family="更纱黑体 UI SC" font-size="13" lengthAdjust="spacingAndGlyphs" textLength="37" x="713" y="449.4481">显示ui</text><polygon fill="#A80036" points="605,482.8997,595,486.8997,605,490.8997,601,486.8997" style="stroke: #A80036; stroke-width: 1.0;"/><line style="stroke: #A80036; stroke-width: 1.0;" x1="599" x2="761" y1="486.8997" y2="486.8997"/><text fill="#000000" font-family="更纱黑体 UI SC" font-size="13" font-weight="bold" lengthAdjust="spacingAndGlyphs" textLength="12" x="611" y="481.108">8.</text><text fill="#000000" font-family="更纱黑体 UI SC" font-size="13" lengthAdjust="spacingAndGlyphs" textLength="78" x="627" y="481.108">查找缓存状态</text><polygon fill="#A80036" points="865,514.5596,875,518.5596,865,522.5596,869,518.5596" style="stroke: #A80036; stroke-width: 1.0;"/><line style="stroke: #A80036; stroke-width: 1.0;" x1="767" x2="871" y1="518.5596" y2="518.5596"/><text fill="#000000" font-family="更纱黑体 UI SC" font-size="13" font-weight="bold" lengthAdjust="spacingAndGlyphs" textLength="12" x="774" y="512.768">9.</text><text fill="#000000" font-family="更纱黑体 UI SC" font-size="13" lengthAdjust="spacingAndGlyphs" textLength="65" x="790" y="512.768">通知给好友</text><!--
@startuml Presence
skinparam defaultFontName "更纱黑体 UI SC"
skinparam sequence {
    ActorFontName "inziu iosevka sc"
    ParticipantFontName "inziu iosevka sc"
}

autonumber 1 1 "<b>."
actor "我"

alt 成功
"我" -> "Reporter(上报模块)" : 上报『输入中』信息
else 超时了
"我" -> "Reporter(上报模块)" : 上报『超时』信息
end
"Reporter(上报模块)" -> "服务器" : 上报信息
deactivate "Reporter(上报模块)"
activate "PushReceiver(接收方模块)"
"服务器" -> "PushReceiver(接收方模块)" : 分发信息
...数据传输中……...
alt 成功
"PushReceiver(接收方模块)" ->> "数据缓存模块" : 子线程缓存数据
"PushReceiver(接收方模块)" ->> "监听器" : 子线程通知显示ui
activate "监听器"
else 数据无效，忽略之
end
"监听器" -> "通知模块" : 显示ui
activate "通知模块"
"通知模块" -> "数据缓存模块" : 查找缓存状态

actor "好友"
"通知模块" -> "好友" : 通知给好友
deactivate "通知模块"
@enduml

PlantUML version 1.2018.12(Sun Oct 21 18:15:15 CST 2018)
(GPL source distribution)
Java Runtime: Java(TM) SE Runtime Environment
JVM: Java HotSpot(TM) 64-Bit Server VM
Java Version: 10.0.1+10
Operating System: Windows 10
OS Version: 10.0
Default Encoding: GBK
Language: zh
Country: CN
--></g></svg>
