<?xml version="1.0" encoding="UTF-8" standalone="no"?><svg xmlns="http://www.w3.org/2000/svg" xmlns:xlink="http://www.w3.org/1999/xlink" contentScriptType="application/ecmascript" contentStyleType="text/css" height="829px" preserveAspectRatio="none" style="width:722px;height:829px;" version="1.1" viewBox="0 0 722 829" width="722px" zoomAndPan="magnify"><defs><filter height="300%" id="f1xy3akjoegnoa" width="300%" x="-1" y="-1"><feGaussianBlur result="blurOut" stdDeviation="2.0"/><feColorMatrix in="blurOut" result="blurOut2" type="matrix" values="0 0 0 0 0 0 0 0 0 0 0 0 0 0 0 0 0 0 .4 0"/><feOffset dx="4.0" dy="4.0" in="blurOut2" result="blurOut3"/><feBlend in="SourceGraphic" in2="blurOut3" mode="normal"/></filter></defs><g><!--class ChatPiePresenceObserver--><rect fill="#FEFECE" filter="url(#f1xy3akjoegnoa)" height="77.8828" id="ChatPiePresenceObserver" style="stroke: #A80036; stroke-width: 1.5;" width="179" x="6" y="195"/><ellipse cx="21" cy="211" fill="#ADD1B2" rx="11" ry="11" style="stroke: #A80036; stroke-width: 1.0;"/><path d="M19.5781,216.3594 Q17.7188,216.3594 16.625,214.9688 Q15.5313,213.5781 15.5313,210.5938 Q15.5313,208.0625 16.6953,206.4063 Q17.8594,204.75 19.8438,204.75 Q21.3125,204.75 21.7813,204.875 Q22.25,205.0781 22.25,205.0781 Q22.25,205.0781 22.25,205.0078 Q22.25,204.9375 22.8594,204.0156 L23.9063,207.6719 L22.5781,208.0781 Q22.1094,206.5313 21.4453,205.8672 Q20.7813,205.2031 19.7188,205.2031 Q19.3281,205.2031 18.5625,206.7344 Q17.7969,208.2656 17.7969,210.5156 Q17.7969,212.9844 18.4609,214.375 Q19.125,215.7656 19.6563,215.7656 Q20.7188,215.7656 21.4766,215 Q22.2344,214.2344 22.5781,212.5781 L23.9063,213.1719 Q23.5781,214.5781 22.6797,215.4688 Q21.7813,216.3594 19.5781,216.3594 Z "/><text fill="#000000" font-family="更纱黑体 UI SC" font-size="12" lengthAdjust="spacingAndGlyphs" textLength="147" x="35" y="215.6534">ChatPiePresenceObserver</text><line style="stroke: #A80036; stroke-width: 1.5;" x1="7" x2="184" y1="227" y2="227"/><text fill="#000000" font-family="更纱黑体 UI SC" font-size="11" lengthAdjust="spacingAndGlyphs" textLength="155" x="12" y="242.7334">friendChatPie : FriendChatPie</text><line style="stroke: #A80036; stroke-width: 1.5;" x1="7" x2="184" y1="249.9414" y2="249.9414"/><text fill="#000000" font-family="更纱黑体 UI SC" font-size="11" lengthAdjust="spacingAndGlyphs" textLength="99" x="12" y="265.6748">void playAnimRes()</text><!--class PresenceObserver--><rect fill="#FEFECE" filter="url(#f1xy3akjoegnoa)" height="92.8242" id="PresenceObserver" style="stroke: #A80036; stroke-width: 1.5;" width="218" x="141.5" y="382"/><ellipse cx="194.25" cy="398" fill="#A9DCDF" rx="11" ry="11" style="stroke: #A80036; stroke-width: 1.0;"/><path d="M194.625,397.9844 L192.6406,397.9844 L192.0469,400.5 Q191.9844,400.8438 191.9844,401.0313 Q191.9844,401.2969 192.0781,401.5625 Q192.1719,401.8281 192.1719,401.8281 L192.8438,401.8281 L192.8438,402.2344 L189.3906,402.2344 L189.3906,401.8281 L189.5781,401.8281 Q189.8438,401.8281 190.0469,401.6641 Q190.25,401.5 190.3125,401.1094 L192.9063,390.9375 L194.7813,390.3281 L197.4219,401.1094 Q197.5625,401.5 197.7578,401.6641 Q197.9531,401.8281 197.9531,401.8281 L198.4219,401.8281 L198.4219,402.2344 L194.5625,402.2344 L194.5625,401.8281 L194.8281,401.8281 Q195.2344,401.8281 195.2969,401.6641 Q195.3594,401.5 195.3594,401.375 Q195.3594,401.1094 195.2969,400.9063 L194.625,397.9844 Z M193.2344,392.0781 L193.2344,392.0781 L192.7813,397.5781 L194.5625,397.5781 L193.2344,392.0781 Z "/><text fill="#000000" font-family="更纱黑体 UI SC" font-size="12" font-style="italic" lengthAdjust="spacingAndGlyphs" textLength="104" x="214.75" y="402.6534">PresenceObserver</text><line style="stroke: #A80036; stroke-width: 1.5;" x1="142.5" x2="358.5" y1="414" y2="414"/><line style="stroke: #A80036; stroke-width: 1.5;" x1="142.5" x2="358.5" y1="422" y2="422"/><text fill="#000000" font-family="更纱黑体 UI SC" font-size="11" lengthAdjust="spacingAndGlyphs" textLength="85" x="147.5" y="437.7334">void onReceive()</text><text fill="#000000" font-family="更纱黑体 UI SC" font-size="11" lengthAdjust="spacingAndGlyphs" textLength="206" x="147.5" y="452.6748">void onFriendPresenceStatusChanged()</text><text fill="#000000" font-family="更纱黑体 UI SC" font-size="11" lengthAdjust="spacingAndGlyphs" textLength="191" x="147.5" y="467.6162">void onSelfPresenceStatusChanged()</text><!--class PresencePushReceiver--><rect fill="#FEFECE" filter="url(#f1xy3akjoegnoa)" height="137.6484" id="PresencePushReceiver" style="stroke: #A80036; stroke-width: 1.5;" width="384" x="220.5" y="165"/><ellipse cx="344.75" cy="181" fill="#ADD1B2" rx="11" ry="11" style="stroke: #A80036; stroke-width: 1.0;"/><path d="M343.3281,186.3594 Q341.4688,186.3594 340.375,184.9688 Q339.2813,183.5781 339.2813,180.5938 Q339.2813,178.0625 340.4453,176.4063 Q341.6094,174.75 343.5938,174.75 Q345.0625,174.75 345.5313,174.875 Q346,175.0781 346,175.0781 Q346,175.0781 346,175.0078 Q346,174.9375 346.6094,174.0156 L347.6563,177.6719 L346.3281,178.0781 Q345.8594,176.5313 345.1953,175.8672 Q344.5313,175.2031 343.4688,175.2031 Q343.0781,175.2031 342.3125,176.7344 Q341.5469,178.2656 341.5469,180.5156 Q341.5469,182.9844 342.2109,184.375 Q342.875,185.7656 343.4063,185.7656 Q344.4688,185.7656 345.2266,185 Q345.9844,184.2344 346.3281,182.5781 L347.6563,183.1719 Q347.3281,184.5781 346.4297,185.4688 Q345.5313,186.3594 343.3281,186.3594 Z "/><text fill="#000000" font-family="更纱黑体 UI SC" font-size="12" lengthAdjust="spacingAndGlyphs" textLength="127" x="365.25" y="185.6534">PresencePushReceiver</text><line style="stroke: #A80036; stroke-width: 1.5;" x1="221.5" x2="603.5" y1="197" y2="197"/><text fill="#000000" font-family="更纱黑体 UI SC" font-size="11" lengthAdjust="spacingAndGlyphs" textLength="372" x="226.5" y="212.7334">friendsPresenceStatusMap : ConcurrentHashMap&lt;Uin, PresenceStatus&gt;</text><line style="stroke: #A80036; stroke-width: 1.5;" x1="221.5" x2="603.5" y1="219.9414" y2="219.9414"/><text fill="#000000" font-family="更纱黑体 UI SC" font-size="11" lengthAdjust="spacingAndGlyphs" textLength="69" x="226.5" y="235.6748">void receive()</text><text fill="#000000" font-family="更纱黑体 UI SC" font-size="11" lengthAdjust="spacingAndGlyphs" textLength="97" x="226.5" y="250.6162">void analyzePush()</text><text fill="#000000" font-family="更纱黑体 UI SC" font-size="11" lengthAdjust="spacingAndGlyphs" textLength="176" x="226.5" y="265.5576">void sendEndMessageAtTimeout()</text><text fill="#000000" font-family="更纱黑体 UI SC" font-size="11" lengthAdjust="spacingAndGlyphs" textLength="208" x="226.5" y="280.499">void removeTimeoutMessageIfNeeded()</text><text fill="#000000" font-family="更纱黑体 UI SC" font-size="11" lengthAdjust="spacingAndGlyphs" textLength="117" x="226.5" y="295.4404">void notifyObservers()</text><!--class PresenceReport--><rect fill="#FEFECE" filter="url(#f1xy3akjoegnoa)" height="77.8828" id="PresenceReport" style="stroke: #A80036; stroke-width: 1.5;" width="245" x="466" y="561.5"/><ellipse cx="539.75" cy="577.5" fill="#ADD1B2" rx="11" ry="11" style="stroke: #A80036; stroke-width: 1.0;"/><path d="M538.3281,582.8594 Q536.4688,582.8594 535.375,581.4688 Q534.2813,580.0781 534.2813,577.0938 Q534.2813,574.5625 535.4453,572.9063 Q536.6094,571.25 538.5938,571.25 Q540.0625,571.25 540.5313,571.375 Q541,571.5781 541,571.5781 Q541,571.5781 541,571.5078 Q541,571.4375 541.6094,570.5156 L542.6563,574.1719 L541.3281,574.5781 Q540.8594,573.0313 540.1953,572.3672 Q539.5313,571.7031 538.4688,571.7031 Q538.0781,571.7031 537.3125,573.2344 Q536.5469,574.7656 536.5469,577.0156 Q536.5469,579.4844 537.2109,580.875 Q537.875,582.2656 538.4063,582.2656 Q539.4688,582.2656 540.2266,581.5 Q540.9844,580.7344 541.3281,579.0781 L542.6563,579.6719 Q542.3281,581.0781 541.4297,581.9688 Q540.5313,582.8594 538.3281,582.8594 Z "/><text fill="#000000" font-family="更纱黑体 UI SC" font-size="12" lengthAdjust="spacingAndGlyphs" textLength="89" x="560.25" y="582.1534">PresenceReport</text><line style="stroke: #A80036; stroke-width: 1.5;" x1="467" x2="710" y1="593.5" y2="593.5"/><line style="stroke: #A80036; stroke-width: 1.5;" x1="467" x2="710" y1="601.5" y2="601.5"/><text fill="#000000" font-family="更纱黑体 UI SC" font-size="11" lengthAdjust="spacingAndGlyphs" textLength="96" x="472" y="617.2334">void reportScene()</text><text fill="#000000" font-family="更纱黑体 UI SC" font-size="11" lengthAdjust="spacingAndGlyphs" textLength="233" x="472" y="632.1748">msg_svc.PbInputNotifyInfo encodeInputPb()</text><!--class PresenceManager--><rect fill="#FEFECE" filter="url(#f1xy3akjoegnoa)" height="92.8242" id="PresenceManager" style="stroke: #A80036; stroke-width: 1.5;" width="255" x="285" y="726"/><ellipse cx="356.75" cy="742" fill="#ADD1B2" rx="11" ry="11" style="stroke: #A80036; stroke-width: 1.0;"/><path d="M355.3281,747.3594 Q353.4688,747.3594 352.375,745.9688 Q351.2813,744.5781 351.2813,741.5938 Q351.2813,739.0625 352.4453,737.4063 Q353.6094,735.75 355.5938,735.75 Q357.0625,735.75 357.5313,735.875 Q358,736.0781 358,736.0781 Q358,736.0781 358,736.0078 Q358,735.9375 358.6094,735.0156 L359.6563,738.6719 L358.3281,739.0781 Q357.8594,737.5313 357.1953,736.8672 Q356.5313,736.2031 355.4688,736.2031 Q355.0781,736.2031 354.3125,737.7344 Q353.5469,739.2656 353.5469,741.5156 Q353.5469,743.9844 354.2109,745.375 Q354.875,746.7656 355.4063,746.7656 Q356.4688,746.7656 357.2266,746 Q357.9844,745.2344 358.3281,743.5781 L359.6563,744.1719 Q359.3281,745.5781 358.4297,746.4688 Q357.5313,747.3594 355.3281,747.3594 Z "/><text fill="#000000" font-family="更纱黑体 UI SC" font-size="12" lengthAdjust="spacingAndGlyphs" textLength="103" x="377.25" y="746.6534">PresenceManager</text><line style="stroke: #A80036; stroke-width: 1.5;" x1="286" x2="539" y1="758" y2="758"/><text fill="#000000" font-family="更纱黑体 UI SC" font-size="11" lengthAdjust="spacingAndGlyphs" textLength="175" x="291" y="773.7334">presenceReport : PresenceReport</text><text fill="#000000" font-family="更纱黑体 UI SC" font-size="11" lengthAdjust="spacingAndGlyphs" textLength="243" x="291" y="788.6748">presencePushReceiver : PresencePushReceiver</text><text fill="#000000" font-family="更纱黑体 UI SC" font-size="11" lengthAdjust="spacingAndGlyphs" textLength="225" x="291" y="803.6162">presenceNotification : PresenceNotification</text><line style="stroke: #A80036; stroke-width: 1.5;" x1="286" x2="539" y1="810.8242" y2="810.8242"/><!--class PresenceNotification--><rect fill="#FEFECE" filter="url(#f1xy3akjoegnoa)" height="92.8242" id="PresenceNotification" style="stroke: #A80036; stroke-width: 1.5;" width="148" x="183.5" y="554"/><ellipse cx="198.5" cy="570" fill="#ADD1B2" rx="11" ry="11" style="stroke: #A80036; stroke-width: 1.0;"/><path d="M197.0781,575.3594 Q195.2188,575.3594 194.125,573.9688 Q193.0313,572.5781 193.0313,569.5938 Q193.0313,567.0625 194.1953,565.4063 Q195.3594,563.75 197.3438,563.75 Q198.8125,563.75 199.2813,563.875 Q199.75,564.0781 199.75,564.0781 Q199.75,564.0781 199.75,564.0078 Q199.75,563.9375 200.3594,563.0156 L201.4063,566.6719 L200.0781,567.0781 Q199.6094,565.5313 198.9453,564.8672 Q198.2813,564.2031 197.2188,564.2031 Q196.8281,564.2031 196.0625,565.7344 Q195.2969,567.2656 195.2969,569.5156 Q195.2969,571.9844 195.9609,573.375 Q196.625,574.7656 197.1563,574.7656 Q198.2188,574.7656 198.9766,574 Q199.7344,573.2344 200.0781,571.5781 L201.4063,572.1719 Q201.0781,573.5781 200.1797,574.4688 Q199.2813,575.3594 197.0781,575.3594 Z "/><text fill="#000000" font-family="更纱黑体 UI SC" font-size="12" lengthAdjust="spacingAndGlyphs" textLength="116" x="212.5" y="574.6534">PresenceNotification</text><line style="stroke: #A80036; stroke-width: 1.5;" x1="184.5" x2="330.5" y1="586" y2="586"/><line style="stroke: #A80036; stroke-width: 1.5;" x1="184.5" x2="330.5" y1="594" y2="594"/><text fill="#000000" font-family="更纱黑体 UI SC" font-size="11" lengthAdjust="spacingAndGlyphs" textLength="60" x="189.5" y="609.7334">void show()</text><text fill="#000000" font-family="更纱黑体 UI SC" font-size="11" lengthAdjust="spacingAndGlyphs" textLength="81" x="189.5" y="624.6748">void playAnim()</text><text fill="#000000" font-family="更纱黑体 UI SC" font-size="11" lengthAdjust="spacingAndGlyphs" textLength="70" x="189.5" y="639.6162">void dismiss()</text><!--class PresenceStatus--><rect fill="#FEFECE" filter="url(#f1xy3akjoegnoa)" height="77.8828" id="PresenceStatus" style="stroke: #A80036; stroke-width: 1.5;" width="119" x="353" y="8"/><ellipse cx="368" cy="24" fill="#ADD1B2" rx="11" ry="11" style="stroke: #A80036; stroke-width: 1.0;"/><path d="M366.5781,29.3594 Q364.7188,29.3594 363.625,27.9688 Q362.5313,26.5781 362.5313,23.5938 Q362.5313,21.0625 363.6953,19.4063 Q364.8594,17.75 366.8438,17.75 Q368.3125,17.75 368.7813,17.875 Q369.25,18.0781 369.25,18.0781 Q369.25,18.0781 369.25,18.0078 Q369.25,17.9375 369.8594,17.0156 L370.9063,20.6719 L369.5781,21.0781 Q369.1094,19.5313 368.4453,18.8672 Q367.7813,18.2031 366.7188,18.2031 Q366.3281,18.2031 365.5625,19.7344 Q364.7969,21.2656 364.7969,23.5156 Q364.7969,25.9844 365.4609,27.375 Q366.125,28.7656 366.6563,28.7656 Q367.7188,28.7656 368.4766,28 Q369.2344,27.2344 369.5781,25.5781 L370.9063,26.1719 Q370.5781,27.5781 369.6797,28.4688 Q368.7813,29.3594 366.5781,29.3594 Z "/><text fill="#000000" font-family="更纱黑体 UI SC" font-size="12" lengthAdjust="spacingAndGlyphs" textLength="87" x="382" y="28.6534">PresenceStatus</text><line style="stroke: #A80036; stroke-width: 1.5;" x1="354" x2="471" y1="40" y2="40"/><text fill="#000000" font-family="更纱黑体 UI SC" font-size="11" lengthAdjust="spacingAndGlyphs" textLength="106" x="359" y="55.7334">isInputing : boolean</text><text fill="#000000" font-family="更纱黑体 UI SC" font-size="11" lengthAdjust="spacingAndGlyphs" textLength="79" x="359" y="70.6748">inAio : boolean</text><line style="stroke: #A80036; stroke-width: 1.5;" x1="354" x2="471" y1="77.8828" y2="77.8828"/><!--link ChatPiePresenceObserver to PresenceObserver--><path d="M126.123,273.032 C147.437,299.502 176.328,335.383 200.9,365.9 " fill="none" id="ChatPiePresenceObserver-PresenceObserver" style="stroke: #A80036; stroke-width: 1.0; stroke-dasharray: 7.0,7.0;"/><polygon fill="none" points="206.57,361.781,213.661,381.749,195.666,370.561,206.57,361.781" style="stroke: #A80036; stroke-width: 1.0;"/><text fill="#000000" font-family="更纱黑体 UI SC" font-size="13" lengthAdjust="spacingAndGlyphs" textLength="26" x="188.5" y="347.8682">实现</text><!--link PresencePushReceiver to PresenceObserver--><path d="M345.811,303.048 C336.765,312.917 327.761,323.091 319.5,333 C307.729,347.119 295.658,363.065 284.97,377.781 " fill="none" id="PresencePushReceiver-PresenceObserver" style="stroke: #A80036; stroke-width: 1.0;"/><polygon fill="#A80036" points="281.993,381.897,290.5083,376.9483,284.9231,377.8455,284.0259,372.2602,281.993,381.897" style="stroke: #A80036; stroke-width: 1.0;"/><text fill="#000000" font-family="更纱黑体 UI SC" font-size="13" lengthAdjust="spacingAndGlyphs" textLength="65" x="320.5" y="347.8682">通知监听器</text><!--link PresenceReport to PresenceManager--><path d="M549.002,639.651 C525.443,662.407 495.14,691.677 469.072,716.857 " fill="none" id="PresenceReport-PresenceManager" style="stroke: #A80036; stroke-width: 1.0;"/><polygon fill="#A80036" points="459.68,725.9283,466.7744,724.6364,468.3106,717.5908,461.2161,718.8827,459.68,725.9283" style="stroke: #A80036; stroke-width: 1.0;"/><text fill="#000000" font-family="更纱黑体 UI SC" font-size="13" lengthAdjust="spacingAndGlyphs" textLength="117" x="507.5" y="691.8682">对象组合，统一管理</text><!--link PresencePushReceiver to PresenceManager--><path d="M412.5,303.22 C412.5,409.396 412.5,612.365 412.5,712.56 " fill="none" id="PresencePushReceiver-PresenceManager" style="stroke: #A80036; stroke-width: 1.0;"/><polygon fill="#A80036" points="412.5,725.7051,416.5,719.7051,412.5,713.7051,408.5,719.7051,412.5,725.7051" style="stroke: #A80036; stroke-width: 1.0;"/><text fill="#000000" font-family="更纱黑体 UI SC" font-size="13" lengthAdjust="spacingAndGlyphs" textLength="117" x="413.5" y="519.8682">对象组合，统一管理</text><!--link PresenceNotification to PresenceManager--><path d="M253.693,647.368 C254.445,663.916 257.932,681.957 267.5,696 C272.883,703.901 279.361,711.031 286.551,717.454 " fill="none" id="PresenceNotification-PresenceManager" style="stroke: #A80036; stroke-width: 1.0;"/><polygon fill="#A80036" points="296.762,725.7825,294.6408,718.8904,287.4631,718.1977,289.5843,725.0897,296.762,725.7825" style="stroke: #A80036; stroke-width: 1.0;"/><text fill="#000000" font-family="更纱黑体 UI SC" font-size="13" lengthAdjust="spacingAndGlyphs" textLength="117" x="268.5" y="691.8682">对象组合，统一管理</text><!--link PresenceStatus to PresencePushReceiver--><path d="M412.5,86.332 C412.5,105.265 412.5,128.873 412.5,151.577 " fill="none" id="PresenceStatus-PresencePushReceiver" style="stroke: #A80036; stroke-width: 1.0;"/><polygon fill="#A80036" points="412.5,164.798,416.5,158.798,412.5,152.798,408.5,158.798,412.5,164.798" style="stroke: #A80036; stroke-width: 1.0;"/><text fill="#000000" font-family="更纱黑体 UI SC" font-size="13" lengthAdjust="spacingAndGlyphs" textLength="52" x="413.5" y="130.8682">状态存储</text><!--link PresenceObserver to PresenceNotification--><path d="M252.376,475.057 C253.31,497.733 254.441,525.222 255.404,548.59 " fill="none" id="PresenceObserver-PresenceNotification" style="stroke: #A80036; stroke-width: 1.0;"/><polygon fill="#A80036" points="255.619,553.817,259.2453,544.66,255.4133,548.8212,251.2521,544.9892,255.619,553.817" style="stroke: #A80036; stroke-width: 1.0;"/><text fill="#000000" font-family="更纱黑体 UI SC" font-size="13" lengthAdjust="spacingAndGlyphs" textLength="82" x="255.5" y="519.8682">显示push通知</text><!--
@startuml 存在感类结构
skinparam defaultFontName "更纱黑体 UI SC"
skinparam sequence {
    ActorFontName "inziu iosevka sc"
    ParticipantFontName "inziu iosevka sc"
}

ChatPiePresenceObserver ..|> PresenceObserver : 实现 
PresencePushReceiver - -> PresenceObserver : 通知监听器
PresenceReport - -* PresenceManager : 对象组合，统一管理
PresencePushReceiver - -* PresenceManager : 对象组合，统一管理
PresenceNotification - -* PresenceManager : 对象组合，统一管理
PresenceStatus - -* PresencePushReceiver : 状态存储
PresenceObserver - -> PresenceNotification : 显示push通知

class PresenceManager {
    presenceReport : PresenceReport
    presencePushReceiver : PresencePushReceiver
    presenceNotification : PresenceNotification
}

class PresencePushReceiver {
    friendsPresenceStatusMap : ConcurrentHashMap<Uin, PresenceStatus>

    void receive()
    void analyzePush()
    void sendEndMessageAtTimeout()
    void removeTimeoutMessageIfNeeded()
    void notifyObservers()
}

class PresenceNotification {
    void show()
    void playAnim()
    void dismiss()
}

abstract class PresenceObserver {
    void onReceive()
    void onFriendPresenceStatusChanged()
    void onSelfPresenceStatusChanged()
}

class ChatPiePresenceObserver {
    friendChatPie : FriendChatPie
    void playAnimRes()
}

class PresenceReport {
    void reportScene()
    msg_svc.PbInputNotifyInfo encodeInputPb()
}

class PresenceStatus {
    isInputing : boolean
    inAio : boolean
}

@enduml

PlantUML version 1.2018.12(Sun Oct 21 18:15:15 CST 2018)
(GPL source distribution)
Java Runtime: Java(TM) SE Runtime Environment
JVM: Java HotSpot(TM) 64-Bit Server VM
Java Version: 10.0.1+10
Operating System: Windows 10
OS Version: 10.0
Default Encoding: GBK
Language: zh
Country: CN
--></g></svg>